<?xml version="1.0" encoding="UTF-8"?>
<!DOCTYPE svg PUBLIC "-//W3C//DTD SVG 1.1//EN" "http://www.w3.org/Graphics/SVG/1.1/DTD/svg11.dtd">
<svg xmlns="http://www.w3.org/2000/svg" version="1.1" width="150px" height="40px" style="shape-rendering:geometricPrecision; text-rendering:geometricPrecision; image-rendering:optimizeQuality; fill-rule:evenodd; clip-rule:evenodd" xmlns:xlink="http://www.w3.org/1999/xlink">
<g><path style="opacity:0.923" fill="#73bc1e" d="M 69.5,-0.5 C 71.8333,-0.5 74.1667,-0.5 76.5,-0.5C 77.6432,10.7572 77.8099,22.0905 77,33.5C 76.1959,36.1459 74.6959,38.1459 72.5,39.5C 66.8333,39.5 61.1667,39.5 55.5,39.5C 53.3041,38.1459 51.8041,36.1459 51,33.5C 50.0906,27.3877 50.424,21.3877 52,15.5C 56.5861,11.2187 61.5861,10.5521 67,13.5C 67.4955,15.4727 67.6621,17.4727 67.5,19.5C 64.5525,19.2229 61.7191,19.5562 59,20.5C 58.3333,24.1667 58.3333,27.8333 59,31.5C 62.3333,32.8333 65.6667,32.8333 69,31.5C 69.4998,20.8385 69.6665,10.1719 69.5,-0.5 Z"/></g>
<g><path style="opacity:0.529" fill="#72bc1c" d="M 149.5,7.5 C 149.5,9.83333 149.5,12.1667 149.5,14.5C 141.226,17.3899 138.559,14.8899 141.5,7C 144.261,6.27817 146.927,6.44484 149.5,7.5 Z M 144.5,12.5 C 147.137,14.1538 146.803,14.6538 143.5,14C 144.056,13.6174 144.389,13.1174 144.5,12.5 Z"/></g>
<g><path style="opacity:0.958" fill="#73bc1e" d="M 6.5,39.5 C 4.16667,39.5 1.83333,39.5 -0.5,39.5C -0.5,31.8333 -0.5,24.1667 -0.5,16.5C 0.854084,14.3041 2.85408,12.8041 5.5,12C 9.5,11.3333 13.5,11.3333 17.5,12C 19.2785,14.1354 19.9452,16.6354 19.5,19.5C 15.5,19.5 11.5,19.5 7.5,19.5C 7.7559,26.2244 7.42257,32.891 6.5,39.5 Z"/></g>
<g><path style="opacity:0.96" fill="#73bc1e" d="M 42.5,39.5 C 36.5,39.5 30.5,39.5 24.5,39.5C 18.3766,34.7988 18.0433,29.6321 23.5,24C 27.4065,22.566 31.4065,22.2327 35.5,23C 36.8613,24.5843 37.528,26.4176 37.5,28.5C 34.8127,28.3359 32.146,28.5026 29.5,29C 28.1667,30 28.1667,31 29.5,32C 32.4294,32.7772 35.2628,32.6105 38,31.5C 38.4988,27.5138 38.6655,23.5138 38.5,19.5C 32.8333,19.5 27.1667,19.5 21.5,19.5C 21.0548,16.6354 21.7215,14.1354 23.5,12C 44.2925,7.12567 51.7925,14.959 46,35.5C 44.6244,36.7051 43.4577,38.0384 42.5,39.5 Z"/></g>
<g><path style="opacity:0.946" fill="#73bc1e" d="M 133.5,39.5 C 127.833,39.5 122.167,39.5 116.5,39.5C 110.458,34.7642 110.125,29.5976 115.5,24C 119.072,22.5951 122.739,22.2617 126.5,23C 128.192,24.4007 128.859,26.2341 128.5,28.5C 125.813,28.3359 123.146,28.5026 120.5,29C 120.043,29.414 119.709,29.914 119.5,30.5C 122.603,32.7037 125.937,33.0371 129.5,31.5C 130.795,27.6197 130.795,23.7864 129.5,20C 124.177,19.5006 118.844,19.334 113.5,19.5C 113.232,16.8806 113.565,14.3806 114.5,12C 133.977,6.81651 141.81,13.9832 138,33.5C 137.196,36.1459 135.696,38.1459 133.5,39.5 Z"/></g>
<g><path style="opacity:0.926" fill="#73bd1d" d="M 106.5,39.5 C 104.833,39.5 103.167,39.5 101.5,39.5C 99.9252,36.4179 97.7585,33.7512 95,31.5C 92.2415,33.7512 90.0748,36.4179 88.5,39.5C 87.1667,39.5 85.8333,39.5 84.5,39.5C 83.0401,37.5372 81.3734,35.7038 79.5,34C 82.8333,31.3333 86.1667,28.6667 89.5,26C 86.0198,23.3542 82.6865,20.5209 79.5,17.5C 81.2466,14.7488 83.58,12.7488 86.5,11.5C 88.0293,11.5288 89.196,12.1955 90,13.5C 91.6667,15.8333 93.3333,18.1667 95,20.5C 97.1667,17.6667 99.3333,14.8333 101.5,12C 105.535,11.8212 108.535,13.6545 110.5,17.5C 107.314,20.5209 103.98,23.3542 100.5,26C 104.059,28.6063 107.393,31.4396 110.5,34.5C 109.143,36.1856 107.81,37.8523 106.5,39.5 Z M 94.5,22.5 C 95.9616,23.4577 97.2949,24.6244 98.5,26C 97.3333,27.1667 96.1667,28.3333 95,29.5C 93.8333,28.3333 92.6667,27.1667 91.5,26C 92.7101,24.9609 93.7101,23.7942 94.5,22.5 Z"/></g>
</svg>
